<svg xmlns="http://www.w3.org/2000/svg" width="512" height="512" viewBox="0 0 512 512">
  <defs>
    <linearGradient id="bg" x1="0" y1="0" x2="0" y2="1">
      <stop offset="0" stop-color="#3584e4"/>
      <stop offset="1" stop-color="#1c71d8"/>
    </linearGradient>
  </defs>

  <rect x="24" y="24" width="464" height="464" rx="104" fill="url(#bg)"/>

  <!-- track A (upper), track B (lower): the two waveforms being compared -->
  <g fill="#ffffff" opacity="0.95">
    <rect x="92"  y="150" width="20" height="60"  rx="10"/>
    <rect x="132" y="120" width="20" height="120" rx="10"/>
    <rect x="172" y="96"  width="20" height="168" rx="10"/>
    <rect x="212" y="134" width="20" height="92"  rx="10"/>
    <rect x="252" y="108" width="20" height="144" rx="10"/>
    <rect x="292" y="146" width="20" height="68"  rx="10"/>
    <rect x="332" y="118" width="20" height="124" rx="10"/>
    <rect x="372" y="140" width="20" height="80"  rx="10"/>
  </g>
  <g fill="#8ff0e0" opacity="0.9">
    <rect x="92"  y="300" width="20" height="80"  rx="10"/>
    <rect x="132" y="272" width="20" height="136" rx="10"/>
    <rect x="172" y="308" width="20" height="64"  rx="10"/>
    <rect x="212" y="264" width="20" height="152" rx="10"/>
    <rect x="252" y="296" width="20" height="88"  rx="10"/>
    <rect x="292" y="252" width="20" height="176" rx="10"/>
    <rect x="332" y="304" width="20" height="72"  rx="10"/>
    <rect x="372" y="278" width="20" height="124" rx="10"/>
  </g>

  <!-- playhead -->
  <rect x="248" y="72" width="8" height="368" rx="4" fill="#f66151"/>
</svg>
